<svg id="Layer_1" data-name="Layer 1" xmlns="http://www.w3.org/2000/svg" viewBox="0 0 400 400"><defs><style>.cls-1{fill:#0071bc;}.cls-2{fill:#5baf89;}.cls-3{fill:#c69c6d;}.cls-4{fill:#c7b299;}.cls-5{fill:#736357;}.cls-6{fill:#ff7bac;}</style></defs><title>Artboard 1</title><rect class="cls-1" y="0.5" width="400" height="400"/><path class="cls-2" d="M324.61,246.63C313.2,280.88,306.22,312,283.52,312a28.93,28.93,0,0,1-17.3-6.06A12.5,12.5,0,0,0,251,305.8a28.73,28.73,0,0,1-16.79,5.68c-22.69,0-29-28.64-41.09-65.32-22-66.9,13.18-76.87,41.09-65.32,7.11,2.95,12.14,4.82,15.7,6l-11.18-24.1,2.59-1c5.41-2.08,10.25,0,13.94,5.15l9.84,21.2a139.81,139.81,0,0,0,18.43-6.79C311.62,169.27,346.52,180.84,324.61,246.63Z"/><rect class="cls-3" x="124.76" y="83.61" width="17.96" height="214.8" transform="translate(128.74 -42.11) rotate(33.77)"/><polygon class="cls-4" points="55.11 308.61 66.58 275.3 81.51 285.29 55.11 308.61"/><polygon class="cls-5" points="55 308.76 58.39 298.94 62.79 301.88 55 308.76"/><rect class="cls-6" x="191.1" y="81.73" width="17.96" height="20.15" transform="translate(84.79 -95.72) rotate(33.77)"/></svg>