<svg id="Layer_1" data-name="Layer 1" xmlns="http://www.w3.org/2000/svg" viewBox="0 0 400 400"><defs><style>.cls-1{fill:#22b573}.cls-2{fill:#e6e6e6}.cls-3{fill:#107355}.cls-4{fill:#ccc}.cls-5{fill:#ff931e}.cls-6{fill:#dd7718}</style></defs><title>Artboard 1</title><path class="cls-1" d="M199.5.5C89 .5-.5 90-.5 200.5s89.54 200 200 200 200-89.54 200-200S310 .5 199.5.5zm0 168z"/><path class="cls-2" d="M79.5 120.35l120 48.03V142.7l-102.89-38-17.11 15.65z"/><path class="cls-3" d="M378.49 289.81L314.25 252l-120.48 64.34 99.19 61a200.85 200.85 0 0 0 85.53-87.53z"/><path class="cls-4" d="M199.5 142.7v25.68l.25.1 119.75-48.13-15.71-14.47L199.5 142.7z"/><path class="cls-5" d="M79.5 257.32l110.36 58.1a20.38 20.38 0 0 0 9.63 2.35V168.48l-120-48.13z"/><path class="cls-6" d="M199.5 317.77a20.37 20.37 0 0 0 9.57-2.46l110.43-59.82V120.35l-120 48.13z"/></svg>