<svg id="Layer_1" data-name="Layer 1" xmlns="http://www.w3.org/2000/svg" viewBox="0 0 400 400"><defs><style>.cls-1{fill:#b9336a;}.cls-2{fill:#852354;}.cls-3{fill:#fbb03b;}.cls-4{fill:#b3b3b3;}</style></defs><title>Artboard 1</title><circle class="cls-1" cx="200" cy="200" r="200"/><path class="cls-2" d="M398.25,226.47l-96-101L112.1,306.32,201.18,400a199.16,199.16,0,0,0,126.26-45.84l20-19A199.27,199.27,0,0,0,398.25,226.47Z"/><path class="cls-3" d="M103.58,281.75a10.62,10.62,0,0,0-.38,15L112,306a9.53,9.53,0,0,0,13.47.34L271.81,167.13l-22.66-23.83Z"/><path class="cls-4" d="M283.87,106.2a10.61,10.61,0,0,0-9.05-3.24c-6.51.84-12.82-.94-17.15-5.49s-5.79-10.94-4.63-17.4a10.61,10.61,0,0,0-2.79-9.2l-2.9-3c-4.09-4.3-11.1-4.26-15.66.07L211.46,87.14c-4.56,4.34-4.95,11.34-.86,15.64l4.83,5.08A10.22,10.22,0,0,0,223,111a18.41,18.41,0,0,1,19.37,20.36,10.22,10.22,0,0,0,2.81,7.72l26.07,27.42a10.79,10.79,0,0,0,11.78,2.4c11-4.22,23.58-2,31.8,6.62,9.86,10.37,10.14,26.53,1.4,38.28l.34.35,3.28-3.12c18.49-17.59,20-46,3.48-63.38Z"/></svg>