<svg xmlns="http://www.w3.org/2000/svg" viewBox="0 0 400 400"><defs><style>.cls-1{fill:#93278f;}.cls-2{fill:#ccc;}.cls-3{fill:#4d4d4d;}.cls-4{fill:#c7b299;}.cls-5{fill:#c69c6d;}.cls-6{fill:#a67c52;}.cls-7{fill:#deba77;}.cls-8{fill:none;stroke:#4d4d4d;stroke-miterlimit:10;}</style></defs><title>Artboard 1</title><g id="Layer_2" data-name="Layer 2"><rect class="cls-1" y="0.5" width="400" height="400"/></g><g id="Layer_1" data-name="Layer 1"><rect class="cls-2" x="93.18" y="233.64" width="212.88" height="79"/><rect class="cls-3" x="97.13" y="237.41" width="12" height="12"/><rect class="cls-3" x="111.46" y="237.41" width="12" height="12"/><rect class="cls-3" x="121.46" y="252.41" width="12" height="12"/><rect class="cls-3" x="135.46" y="252.41" width="12" height="12"/><rect class="cls-3" x="149.46" y="252.41" width="12" height="12"/><rect class="cls-3" x="163.46" y="252.41" width="12" height="12"/><rect class="cls-3" x="177.46" y="252.41" width="12" height="12"/><rect class="cls-3" x="191.46" y="252.41" width="12" height="12"/><rect class="cls-3" x="205.46" y="252.41" width="12" height="12"/><rect class="cls-3" x="219.46" y="252.41" width="12" height="12"/><rect class="cls-3" x="233.46" y="252.41" width="12" height="12"/><rect class="cls-3" x="247.46" y="252.41" width="12" height="12"/><rect class="cls-3" x="261.46" y="252.41" width="12" height="12"/><rect class="cls-3" x="138.46" y="267.41" width="12" height="12"/><rect class="cls-3" x="152.46" y="267.41" width="12" height="12"/><rect class="cls-3" x="166.46" y="267.41" width="12" height="12"/><rect class="cls-3" x="180.46" y="267.41" width="12" height="12"/><rect class="cls-3" x="194.46" y="267.41" width="12" height="12"/><rect class="cls-3" x="208.46" y="267.41" width="12" height="12"/><rect class="cls-3" x="222.46" y="267.41" width="12" height="12"/><rect class="cls-3" x="236.46" y="267.41" width="12" height="12"/><rect class="cls-3" x="250.46" y="267.41" width="12" height="12"/><rect class="cls-3" x="264.46" y="267.41" width="12" height="12"/><rect class="cls-3" x="278.63" y="267.41" width="22.83" height="12"/><rect class="cls-3" x="272.9" y="282.13" width="28.46" height="12"/><rect class="cls-3" x="275.46" y="252.41" width="12" height="12"/><rect class="cls-3" x="289.46" y="252.41" width="12" height="12"/><rect class="cls-3" x="124.46" y="267.41" width="12" height="12"/><rect class="cls-3" x="146.46" y="282" width="12" height="12"/><rect class="cls-3" x="160.46" y="282" width="12" height="12"/><rect class="cls-3" x="174.46" y="282" width="12" height="12"/><rect class="cls-3" x="188.46" y="282" width="12" height="12"/><rect class="cls-3" x="202.46" y="282" width="12" height="12"/><rect class="cls-3" x="216.46" y="282" width="12" height="12"/><rect class="cls-3" x="230.46" y="282" width="12" height="12"/><rect class="cls-3" x="244.46" y="282" width="12" height="12"/><rect class="cls-3" x="258.46" y="282" width="12" height="12"/><rect class="cls-3" x="132.46" y="282" width="12" height="12"/><rect class="cls-3" x="125.63" y="237.41" width="12" height="12"/><rect class="cls-3" x="139.63" y="237.41" width="12" height="12"/><rect class="cls-3" x="153.63" y="237.41" width="12" height="12"/><rect class="cls-3" x="167.63" y="237.41" width="12" height="12"/><rect class="cls-3" x="181.63" y="237.41" width="12" height="12"/><rect class="cls-3" x="196.13" y="237.41" width="12" height="12"/><rect class="cls-3" x="210.46" y="237.41" width="12" height="12"/><rect class="cls-3" x="224.63" y="237.41" width="12" height="12"/><rect class="cls-3" x="238.63" y="237.41" width="12" height="12"/><rect class="cls-3" x="252.63" y="237.41" width="12" height="12"/><rect class="cls-3" x="266.63" y="237.41" width="12" height="12"/><rect class="cls-3" x="247.52" y="296.86" width="12.04" height="12"/><rect class="cls-3" x="261.52" y="296.86" width="12.04" height="12"/><rect class="cls-3" x="275.52" y="296.86" width="12.04" height="12"/><rect class="cls-3" x="289.52" y="296.86" width="12.04" height="12"/><rect class="cls-3" x="280.63" y="237.41" width="21.63" height="12"/><rect class="cls-3" x="97.13" y="252.27" width="21.9" height="12"/><rect class="cls-3" x="97.13" y="267.14" width="24.77" height="12.27"/><rect class="cls-3" x="97.13" y="282" width="33.33" height="12"/><rect class="cls-3" x="97.13" y="296.86" width="12" height="12"/><rect class="cls-3" x="111.46" y="296.86" width="12" height="12"/><rect class="cls-3" x="125.63" y="296.86" width="12" height="12"/><rect class="cls-3" x="139.63" y="296.86" width="16.87" height="12"/><rect class="cls-3" x="228.69" y="296.86" width="16.87" height="12"/><rect class="cls-3" x="158.63" y="296.86" width="67.55" height="12"/></g><g id="Layer_3" data-name="Layer 3"><polygon class="cls-4" points="327.88 169.51 272.01 169.51 266.5 76.66 333.5 76.66 327.88 169.51"/><path class="cls-2" d="M273.46,175.82a.33.33,0,0,0,0,.17h0Z"/><path class="cls-2" d="M326.54,175.82V176h0A.33.33,0,0,0,326.54,175.82Z"/><path class="cls-2" d="M327,172v3.82c0,.06-.24.12-.27.17-.75,1.69-12.45,3-26.62,3s-26-1.35-26.79-3c0,0-.33-.11-.33-.17V172Z"/><polygon class="cls-3" points="329.45 143.66 270.48 143.66 268.09 103.38 331.88 103.38 329.45 143.66"/><rect class="cls-3" x="266.5" y="62.63" width="67" height="14.03" rx="3.44" ry="3.44"/><rect class="cls-3" x="262.46" y="71.16" width="74.95" height="10.16" rx="2.43" ry="2.43"/><path class="cls-5" d="M167.39,49.91c-5.61,10.71-63.3-9.55-97.31,22.47-29.6,27.86,13,60,1.58,68C48.14,157,22.16,85.93,56.47,54.22S182.31,21.42,167.39,49.91Z"/><ellipse class="cls-6" cx="90.52" cy="148.5" rx="41.16" ry="35.96"/><path class="cls-5" d="M206.46,132.44A56.81,56.81,0,1,1,99.21,106.31L95.77,78.62,123.41,82a56.87,56.87,0,0,1,47.82-2.17L193.11,71l4.26,30.59A56.55,56.55,0,0,1,206.46,132.44Z"/><polygon class="cls-7" points="102.41 84.97 112.76 87.4 104.84 95.32 102.41 84.97"/><polygon class="cls-7" points="185.83 81.5 185.91 91.55 177.09 86.45 185.83 81.5"/><path class="cls-8" d="M124.5,126v-2.65a7,7,0,0,1,.25-1.84l.49-1.8a5.33,5.33,0,0,1,2-2.9l.38-.28a5.33,5.33,0,0,1,3.15-1h1.12a5.33,5.33,0,0,1,1.57.24l1.3.4a5.33,5.33,0,0,1,2.78,2h0a5.33,5.33,0,0,1,1,3.08V126"/><path class="cls-8" d="M156.17,126v-2.65a7,7,0,0,1,.25-1.84l.49-1.8a5.33,5.33,0,0,1,2-2.9l.38-.28a5.33,5.33,0,0,1,3.15-1h1.12a5.33,5.33,0,0,1,1.57.24l1.3.4a5.33,5.33,0,0,1,2.78,2h0a5.33,5.33,0,0,1,1,3.08V126"/><path class="cls-8" d="M140.1,150.13l.77,2.44a1.57,1.57,0,0,0,.2.41l.83,1.21a2.14,2.14,0,0,0,.37.41l.2.18a3,3,0,0,0,1.71.75l.72.07a2.16,2.16,0,0,0,1.54-.64h0a2.16,2.16,0,0,0,.33-.43l.71-1.23a2.16,2.16,0,0,0,.16-.34l.66-1.78.33-1"/><path class="cls-8" d="M148.63,150.13l.77,2.44a1.57,1.57,0,0,0,.2.41l.83,1.21a2.14,2.14,0,0,0,.37.41l.2.18a3,3,0,0,0,1.71.75l.72.07A2.16,2.16,0,0,0,155,155h0a2.16,2.16,0,0,0,.33-.43l.71-1.23a2.16,2.16,0,0,0,.16-.34l.66-1.78.33-1"/><line class="cls-8" x1="132.55" y1="137.72" x2="104.62" y2="135.16"/><line class="cls-8" x1="191.37" y1="145.91" x2="163.43" y2="143.35"/><line class="cls-8" x1="188.96" y1="133.76" x2="163.17" y2="137.62"/><line class="cls-8" x1="132.3" y1="142.4" x2="104.36" y2="143.36"/><path class="cls-1" d="M147.59,142l-2.46-4.27a1,1,0,0,1,.87-1.51h4.93a1,1,0,0,1,.87,1.51L149.33,142A1,1,0,0,1,147.59,142Z"/></g></svg>