<svg xmlns="http://www.w3.org/2000/svg" viewBox="0 0 400 400"><defs><style>.cls-1{fill:#93278f}.cls-2{fill:#ccc}.cls-3{fill:#4d4d4d}.cls-4{fill:#c7b299}.cls-5{fill:#c69c6d}.cls-6{fill:#a67c52}.cls-7{fill:#deba77}.cls-8{fill:none;stroke:#4d4d4d;stroke-miterlimit:10}</style></defs><title>Artboard 1</title><path class="cls-1" d="M0 .5h400v400H0z" id="Layer_2" data-name="Layer 2"/><g id="Layer_1" data-name="Layer 1"><path class="cls-2" d="M93.18 233.64h212.88v79H93.18z"/><path class="cls-3" d="M97.13 237.41h12v12h-12zm14.33 0h12v12h-12zm10 15h12v12h-12zm14 0h12v12h-12zm14 0h12v12h-12zm14 0h12v12h-12zm14 0h12v12h-12zm14 0h12v12h-12zm14 0h12v12h-12zm14 0h12v12h-12zm14 0h12v12h-12zm14 0h12v12h-12zm14 0h12v12h-12zm-123 15h12v12h-12zm14 0h12v12h-12zm14 0h12v12h-12zm14 0h12v12h-12zm14 0h12v12h-12zm14 0h12v12h-12zm14 0h12v12h-12zm14 0h12v12h-12zm14 0h12v12h-12zm14 0h12v12h-12zm14.17 0h22.83v12h-22.83zm-5.73 14.72h28.46v12H272.9zm2.56-29.72h12v12h-12zm14 0h12v12h-12zm-165 15h12v12h-12zm22 14.59h12v12h-12zm14 0h12v12h-12zm14 0h12v12h-12zm14 0h12v12h-12zm14 0h12v12h-12zm14 0h12v12h-12zm14 0h12v12h-12zm14 0h12v12h-12zm14 0h12v12h-12zm-126 0h12v12h-12zm-6.83-44.59h12v12h-12zm14 0h12v12h-12zm14 0h12v12h-12zm14 0h12v12h-12zm14 0h12v12h-12zm14.5 0h12v12h-12zm14.33 0h12v12h-12zm14.17 0h12v12h-12zm14 0h12v12h-12zm14 0h12v12h-12zm14 0h12v12h-12zm-19.11 59.45h12.04v12h-12.04zm14 0h12.04v12h-12.04zm14 0h12.04v12h-12.04zm14 0h12.04v12h-12.04zm-8.89-59.45h21.63v12h-21.63zm-183.5 14.86h21.9v12h-21.9zm0 14.87h24.77v12.27H97.13zm0 14.86h33.33v12H97.13zm0 14.86h12v12h-12zm14.33 0h12v12h-12zm14.17 0h12v12h-12zm14 0h16.87v12h-16.87zm89.06 0h16.87v12h-16.87zm-70.06 0h67.55v12h-67.55z"/></g><g id="Layer_3" data-name="Layer 3"><path class="cls-4" d="M327.88 169.51h-55.87l-5.51-92.85h67l-5.62 92.85z"/><path class="cls-2" d="M273.46 175.82a.33.33 0 0 0 0 .17zm53.08 0v.18a.33.33 0 0 0 0-.18z"/><path class="cls-2" d="M327 172v3.82c0 .06-.24.12-.27.17-.75 1.69-12.45 3-26.62 3s-26-1.35-26.79-3c0 0-.33-.11-.33-.17V172z"/><path class="cls-3" d="M329.45 143.66h-58.97l-2.39-40.28h63.79l-2.43 40.28z"/><rect class="cls-3" x="266.5" y="62.63" width="67" height="14.03" rx="3.44" ry="3.44"/><rect class="cls-3" x="262.46" y="71.16" width="74.95" height="10.16" rx="2.43" ry="2.43"/><path class="cls-5" d="M167.39 49.91c-5.61 10.71-63.3-9.55-97.31 22.47-29.6 27.86 13 60 1.58 68C48.14 157 22.16 85.93 56.47 54.22s125.84-32.8 110.92-4.31z"/><ellipse class="cls-6" cx="90.52" cy="148.5" rx="41.16" ry="35.96"/><path class="cls-5" d="M206.46 132.44a56.81 56.81 0 1 1-107.25-26.13l-3.44-27.69L123.41 82a56.87 56.87 0 0 1 47.82-2.17L193.11 71l4.26 30.59a56.55 56.55 0 0 1 9.09 30.85z"/><path class="cls-7" d="M102.41 84.97l10.35 2.43-7.92 7.92-2.43-10.35zm83.42-3.47l.08 10.05-8.82-5.1 8.74-4.95z"/><path class="cls-8" d="M124.5 126v-2.65a7 7 0 0 1 .25-1.84l.49-1.8a5.33 5.33 0 0 1 2-2.9l.38-.28a5.33 5.33 0 0 1 3.15-1h1.12a5.33 5.33 0 0 1 1.57.24l1.3.4a5.33 5.33 0 0 1 2.78 2 5.33 5.33 0 0 1 1 3.08V126m17.63 0v-2.65a7 7 0 0 1 .25-1.84l.49-1.8a5.33 5.33 0 0 1 2-2.9l.38-.28a5.33 5.33 0 0 1 3.15-1h1.12a5.33 5.33 0 0 1 1.57.24l1.3.4a5.33 5.33 0 0 1 2.78 2 5.33 5.33 0 0 1 1 3.08V126m-30.11 24.13l.77 2.44a1.57 1.57 0 0 0 .2.41l.83 1.21a2.14 2.14 0 0 0 .37.41l.2.18a3 3 0 0 0 1.71.75l.72.07a2.16 2.16 0 0 0 1.54-.64 2.16 2.16 0 0 0 .33-.43l.71-1.23a2.16 2.16 0 0 0 .16-.34l.66-1.78.33-1m0-.05l.77 2.44a1.57 1.57 0 0 0 .2.41l.83 1.21a2.14 2.14 0 0 0 .37.41l.2.18a3 3 0 0 0 1.71.75l.72.07a2.16 2.16 0 0 0 1.57-.6 2.16 2.16 0 0 0 .33-.43l.71-1.23a2.16 2.16 0 0 0 .16-.34l.66-1.78.33-1m-24.64-12.5l-27.93-2.56m86.75 10.75l-27.94-2.56m25.53-9.59l-25.79 3.86m-30.87 4.78l-27.94.96"/><path class="cls-1" d="M147.59 142l-2.46-4.27a1 1 0 0 1 .87-1.51h4.93a1 1 0 0 1 .87 1.51l-2.47 4.27a1 1 0 0 1-1.74 0z"/></g></svg>