<svg id="Layer_1" data-name="Layer 1" xmlns="http://www.w3.org/2000/svg" viewBox="0 0 400 400"><defs><style>.cls-1{fill:#a67c52;}.cls-2{fill:#006837;}.cls-3{fill:#4d4d4d;}.cls-4{fill:#c1272d;}</style></defs><title>Artboard 1</title><rect class="cls-1" width="400" height="400"/><path class="cls-2" d="M278.61,211.36a37.41,37.41,0,0,0,3.66-16c0-32.92-45.05-59.61-100.63-59.61S81,162.47,81,195.39,126.05,255,181.63,255c23.51,0,45.14-4.78,62.28-12.78l-62.28-46.82Z"/><path class="cls-2" d="M327.77-11.5c-28.25,0-53.4,7.75-69.56,19.79L327.77,40l-87.65-6.1a30.71,30.71,0,0,0-.62,6.1c0,28.44,39.52,51.5,88.27,51.5S416,68.44,416,40,376.51-11.5,327.77-11.5Z"/><ellipse class="cls-3" cx="58.29" cy="56.96" rx="30.54" ry="17.31"/><path class="cls-3" d="M91,47.61c-9.75,0-17.84,3.53-19.46,8.18L91.25,57,71.31,58.12C72,63.29,80.52,67.39,91,67.39c10.92,0,19.77-4.43,19.77-9.89S101.94,47.61,91,47.61Z"/><path class="cls-3" d="M71.56,55.79a5.17,5.17,0,0,0-.31,1.71,5,5,0,0,0,.06.62L91.25,57Z"/><path class="cls-4" d="M56.35,39.65c-16.46,0-30.25,5.65-33.93,13.26l68.83,4C91.25,47.4,75.63,39.65,56.35,39.65Z"/><path class="cls-4" d="M22.42,61c3.67,7.6,17.47,13.26,33.93,13.26,19.27,0,34.9-7.75,34.9-17.3Z"/><ellipse class="cls-3" cx="46.74" cy="46.78" rx="3.54" ry="2.66"/><ellipse class="cls-3" cx="70.15" cy="49.18" rx="6.27" ry="4.18"/><ellipse class="cls-3" cx="59.34" cy="67.76" rx="3.6" ry="2.16"/><ellipse class="cls-3" cx="38.66" cy="66" rx="4.53" ry="3.4"/><ellipse class="cls-3" cx="80.01" cy="64.4" rx="3.59" ry="3.37"/></svg>