<svg id="Layer_1" data-name="Layer 1" xmlns="http://www.w3.org/2000/svg" viewBox="0 0 400 400"><defs><style>.cls-1{fill:#a67c52}.cls-2{fill:#006837}.cls-3{fill:#4d4d4d}.cls-4{fill:#c1272d}</style></defs><title>Artboard 1</title><path class="cls-1" d="M0 0h400v400H0z"/><path class="cls-2" d="M278.61 211.36a37.41 37.41 0 0 0 3.66-16c0-32.92-45.05-59.61-100.63-59.61S81 162.47 81 195.39 126.05 255 181.63 255c23.51 0 45.14-4.78 62.28-12.78l-62.28-46.82zM327.77-11.5c-28.25 0-53.4 7.75-69.56 19.79L327.77 40l-87.65-6.1a30.71 30.71 0 0 0-.62 6.1c0 28.44 39.52 51.5 88.27 51.5S416 68.44 416 40s-39.49-51.5-88.23-51.5z"/><ellipse class="cls-3" cx="58.29" cy="56.96" rx="30.54" ry="17.31"/><path class="cls-3" d="M91 47.61c-9.75 0-17.84 3.53-19.46 8.18L91.25 57l-19.94 1.12c.69 5.17 9.21 9.27 19.69 9.27 10.92 0 19.77-4.43 19.77-9.89s-8.83-9.89-19.77-9.89z"/><path class="cls-3" d="M71.56 55.79a5.17 5.17 0 0 0-.31 1.71 5 5 0 0 0 .06.62L91.25 57z"/><path class="cls-4" d="M56.35 39.65c-16.46 0-30.25 5.65-33.93 13.26l68.83 4c0-9.51-15.62-17.26-34.9-17.26zM22.42 61c3.67 7.6 17.47 13.26 33.93 13.26 19.27 0 34.9-7.75 34.9-17.3z"/><ellipse class="cls-3" cx="46.74" cy="46.78" rx="3.54" ry="2.66"/><ellipse class="cls-3" cx="70.15" cy="49.18" rx="6.27" ry="4.18"/><ellipse class="cls-3" cx="59.34" cy="67.76" rx="3.6" ry="2.16"/><ellipse class="cls-3" cx="38.66" cy="66" rx="4.53" ry="3.4"/><ellipse class="cls-3" cx="80.01" cy="64.4" rx="3.59" ry="3.37"/></svg>