<svg id="Layer_1" data-name="Layer 1" xmlns="http://www.w3.org/2000/svg" viewBox="0 0 400 400"><defs><style>.cls-1{fill:#7bccd4;}.cls-2{fill:#f2f2f2;}.cls-3{fill:#ccc;}.cls-4{fill:#999;}.cls-5{fill:#b3b3b3;}.cls-6{fill:gray;}</style></defs><title>Artboard 1</title><rect class="cls-1" width="400" height="400"/><path class="cls-2" d="M280.51,205.25l-201.58,2c-6.45.06-9.8-4.24-5.3-6.8l12.77-7.28c8.14-4.64,19.35-7.22,31-7.15l210.76,1.31c4.4,0,6,3.21,2.34,4.53l-26.94,9.55A72,72,0,0,1,280.51,205.25Z"/><path class="cls-3" d="M309.14,187.27H261.69l46-30.74a15,15,0,0,1,8.08-2.39l16.7-.23Z"/><polygon class="cls-4" points="317.02 194.42 290.57 197.04 338.57 178.85 317.02 194.42"/><polygon class="cls-5" points="269.87 212.62 269.87 214.56 147.76 203.35 189.98 203.35 269.87 212.62"/><path class="cls-6" d="M102.82,193.88l-18.44.43,2.48-1.38,1.2-.67,0,0,2.29-1.09h12.42Z"/><path class="cls-2" d="M192.46,315.5c0,10.71-9.49,19.39-21.2,19.39a22.3,22.3,0,0,1-13.13-4.17,24.71,24.71,0,0,1-40.27,1.58,22.42,22.42,0,0,1-12.28,3.59c-11.71,0-21.21-8.68-21.21-19.39s9.5-19.4,21.21-19.4a22.4,22.4,0,0,1,13,4.09,24.69,24.69,0,0,1,37.93.34,22.23,22.23,0,0,1,14.72-5.43C183,296.1,192.46,304.78,192.46,315.5Z"/><path class="cls-2" d="M348.46,290.5c0,10.71-9.49,19.39-21.2,19.39a22.3,22.3,0,0,1-13.13-4.17,24.71,24.71,0,0,1-40.27,1.58,22.42,22.42,0,0,1-12.28,3.59c-11.71,0-21.21-8.68-21.21-19.39s9.5-19.4,21.21-19.4a22.4,22.4,0,0,1,13,4.09,24.69,24.69,0,0,1,37.93.34,22.23,22.23,0,0,1,14.72-5.43C339,271.1,348.46,279.78,348.46,290.5Z"/><path class="cls-2" d="M195.46,99.5c0,10.71-9.49,19.39-21.2,19.39a22.3,22.3,0,0,1-13.13-4.17,24.71,24.71,0,0,1-40.27,1.58,22.42,22.42,0,0,1-12.28,3.59c-11.71,0-21.21-8.68-21.21-19.39s9.5-19.4,21.21-19.4a22.4,22.4,0,0,1,13,4.09,24.69,24.69,0,0,1,37.93.34,22.23,22.23,0,0,1,14.72-5.43C186,80.1,195.46,88.78,195.46,99.5Z"/><path class="cls-2" d="M351.46,50.5c0,10.71-9.49,19.39-21.2,19.39a22.3,22.3,0,0,1-13.13-4.17,24.71,24.71,0,0,1-40.27,1.58,22.42,22.42,0,0,1-12.28,3.59c-11.71,0-21.21-8.68-21.21-19.39s9.5-19.4,21.21-19.4a22.4,22.4,0,0,1,13,4.09,24.69,24.69,0,0,1,37.93.34,22.23,22.23,0,0,1,14.72-5.43C342,31.1,351.46,39.78,351.46,50.5Z"/></svg>