<svg id="Layer_1" data-name="Layer 1" xmlns="http://www.w3.org/2000/svg" viewBox="0 0 400 400"><defs><style>.cls-1{fill:#b3b3b3}.cls-2{fill:#c1272d}.cls-3{fill:#333}</style></defs><title>Artboard 1</title><path class="cls-1" d="M0 0h400v400H0z"/><path class="cls-2" d="M8.37 189.96h382.97v126.89H8.37z"/><path class="cls-3" d="M215 190.05l-65.78 69.79a264 264 0 0 0-3.49-43.56l-43.31 41.87a224.24 224.24 0 0 0-2.06-32.35l-40 37.48c-5.07-54.22-22.89-81-45.77-98 36.38 0 64.27 5.24 72.89 13.25-9.23-21.26-20.76-34.89-28.71-41.21 31.53-.25 54.81 5 66.52 15.77-11.44-22.21-24.24-36.22-31.73-42.58 57.18.01 102.21 26.31 121.44 79.54zm157.71-39.66c-8.1 9.57-31.63 52.18-45.49 92.06l-54.94-16.67-8.78 19.82-46.32-55.16c18.5-26.08 62.35-64 100.78-67.74l-31.33 70.7c19.31-21.18 47.51-43.12 86.08-43.01z"/></svg>