<svg id="Layer_1" data-name="Layer 1" xmlns="http://www.w3.org/2000/svg" viewBox="0 0 400 400"><defs><style>.cls-1{fill:#7bccd4}.cls-2{fill:#f2f2f2}.cls-3{fill:#ccc}.cls-4{fill:#999}.cls-5{fill:#b3b3b3}.cls-6{fill:gray}</style></defs><title>Artboard 1</title><path class="cls-1" d="M0 0h400v400H0z"/><path class="cls-2" d="M280.51 205.25l-201.58 2c-6.45.06-9.8-4.24-5.3-6.8l12.77-7.28c8.14-4.64 19.35-7.22 31-7.15l210.76 1.31c4.4 0 6 3.21 2.34 4.53l-26.94 9.55a72 72 0 0 1-23.05 3.84z"/><path class="cls-3" d="M309.14 187.27h-47.45l46-30.74a15 15 0 0 1 8.08-2.39l16.7-.23z"/><path class="cls-4" d="M317.02 194.42l-26.45 2.62 48-18.19-21.55 15.57z"/><path class="cls-5" d="M269.87 212.62v1.94l-122.11-11.21h42.22l79.89 9.27z"/><path class="cls-6" d="M102.82 193.88l-18.44.43 2.48-1.38 1.2-.67 2.29-1.09h12.42z"/><path class="cls-2" d="M192.46 315.5c0 10.71-9.49 19.39-21.2 19.39a22.3 22.3 0 0 1-13.13-4.17 24.71 24.71 0 0 1-40.27 1.58 22.42 22.42 0 0 1-12.28 3.59c-11.71 0-21.21-8.68-21.21-19.39s9.5-19.4 21.21-19.4a22.4 22.4 0 0 1 13 4.09 24.69 24.69 0 0 1 37.93.34 22.23 22.23 0 0 1 14.72-5.43c11.77 0 21.23 8.68 21.23 19.4zm156-25c0 10.71-9.49 19.39-21.2 19.39a22.3 22.3 0 0 1-13.13-4.17 24.71 24.71 0 0 1-40.27 1.58 22.42 22.42 0 0 1-12.28 3.59c-11.71 0-21.21-8.68-21.21-19.39s9.5-19.4 21.21-19.4a22.4 22.4 0 0 1 13 4.09 24.69 24.69 0 0 1 37.93.34 22.23 22.23 0 0 1 14.72-5.43c11.77 0 21.23 8.68 21.23 19.4zm-153-191c0 10.71-9.49 19.39-21.2 19.39a22.3 22.3 0 0 1-13.13-4.17 24.71 24.71 0 0 1-40.27 1.58 22.42 22.42 0 0 1-12.28 3.59c-11.71 0-21.21-8.68-21.21-19.39s9.5-19.4 21.21-19.4a22.4 22.4 0 0 1 13 4.09 24.69 24.69 0 0 1 37.93.34 22.23 22.23 0 0 1 14.72-5.43c11.77 0 21.23 8.68 21.23 19.4zm156-49c0 10.71-9.49 19.39-21.2 19.39a22.3 22.3 0 0 1-13.13-4.17 24.71 24.71 0 0 1-40.27 1.58 22.42 22.42 0 0 1-12.28 3.59c-11.71 0-21.21-8.68-21.21-19.39s9.5-19.4 21.21-19.4a22.4 22.4 0 0 1 13 4.09 24.69 24.69 0 0 1 37.93.34 22.23 22.23 0 0 1 14.72-5.43c11.77 0 21.23 8.68 21.23 19.4z"/></svg>